inDegrees=no
num_controls=7
num_derivatives=13
num_iterations=116
num_multipliers=7
num_parameters=0
num_slacks=7
num_states=26
objective=0.442555
objective_accelerations=0.059916
objective_balance=0.003777
objective_effort=0.024429
objective_height=0.348892
objective_ligament=0.005541
solver_duration=1773.397545
status=Solve_Succeeded
success=true
DataType=double
version=3
OpenSimVersion=4.5
endheader
time	/jointset/ground_pelvis/pelvis_tilt/value	/jointset/ground_pelvis/pelvis_tx/value	/jointset/ground_pelvis/pelvis_ty/value	/jointset/hip_l/hip_flexion_l/value	/jointset/hip_l/hip_adduction_l/value	/jointset/hip_l/hip_rotation_l/value	/jointset/back/lumbar_extension/value	/jointset/patellofemoral_l/patellar_flexion_l/value	/jointset/knee_l/knee_flexion_l/value	/jointset/knee_l/knee_adduction_l/value	/jointset/knee_l/knee_rotation_l/value	/jointset/ankle_l/ankle_angle_l/value	/jointset/subtalar_l/subtalar_angle_l/value	/jointset/ground_pelvis/pelvis_tilt/speed	/jointset/ground_pelvis/pelvis_tx/speed	/jointset/ground_pelvis/pelvis_ty/speed	/jointset/hip_l/hip_flexion_l/speed	/jointset/hip_l/hip_adduction_l/speed	/jointset/hip_l/hip_rotation_l/speed	/jointset/back/lumbar_extension/speed	/jointset/patellofemoral_l/patellar_flexion_l/speed	/jointset/knee_l/knee_flexion_l/speed	/jointset/knee_l/knee_adduction_l/speed	/jointset/knee_l/knee_rotation_l/speed	/jointset/ankle_l/ankle_angle_l/speed	/jointset/subtalar_l/subtalar_angle_l/speed	/forceset/tau_hip_flexion_l	/forceset/tau_hip_adduction_l	/forceset/tau_hip_rotation_l	/forceset/tau_knee_flexion_l	/forceset/tau_ankle_angle_l	/forceset/tau_subtalar_angle_l	/forceset/tau_lumbar_extension	lambda_cid13_p0	lambda_cid13_p1	lambda_cid13_p2	lambda_cid13_p3	lambda_cid13_p4	lambda_cid13_p5	lambda_cid14_p0	/jointset/ground_pelvis/pelvis_tilt/accel	/jointset/ground_pelvis/pelvis_tx/accel	/jointset/ground_pelvis/pelvis_ty/accel	/jointset/hip_l/hip_flexion_l/accel	/jointset/hip_l/hip_adduction_l/accel	/jointset/hip_l/hip_rotation_l/accel	/jointset/back/lumbar_extension/accel	/jointset/patellofemoral_l/patellar_flexion_l/accel	/jointset/knee_l/knee_flexion_l/accel	/jointset/knee_l/knee_adduction_l/accel	/jointset/knee_l/knee_rotation_l/accel	/jointset/ankle_l/ankle_angle_l/accel	/jointset/subtalar_l/subtalar_angle_l/accel	gamma_cid13_p0	gamma_cid13_p1	gamma_cid13_p2	gamma_cid13_p3	gamma_cid13_p4	gamma_cid13_p5	gamma_cid14_p0
1.5	-0.3928789652446126	-0.03415752853061812	0.7528195257523713	1.161205247266027	-0.4351282471854356	-0.2088287018236104	-0.2279277793985166	0.8235022620135362	0.8235022620135845	-0.1245604899536522	-0.1493588816101435	0.1190529796210685	-0.02460729828809998	0.7338602638373785	0.2947450015073807	0.5698809662150908	-2.602617368409529	0.2038695985873588	-0.7405963421261849	0.3072526376450033	-2.061362704181108	-2.06136270418146	-0.1451626305517661	0.124418225488475	-0.3666142553074899	0.04839407478645257	-0.1871376366883306	0.03078135568546284	-0.009024711494286554	-0.1999685382886989	0.04792117673869365	0.04313926659895741	0.1769175530498696	-16.75130025462128	-18.63621983677895	5.872164355015231	-8.275260955105201	-519.0865466803499	-58.07758334228656	-24.1435538086202	0.7791900500096992	0.7675843530782546	-0.5440071602760266	-1.401168215172112	0.7520485842773363	-0.2309767627174587	1.531048487495947	-1.366316273746012	-1.366316273745976	0.1391630633699044	0.2222217023467097	-0.5498771093129158	0.5339353061455603	5.901621099873694e-07	1.819122916984881e-07	-3.641768880510001e-06	-2.354437585919591e-07	8.18443167139953e-07	-3.044231891293475e-07	5.281678868962669e-07
1.51	-0.38550144814596	-0.03117189120546035	0.7584900158909137	1.135110555967344	-0.4330537861285362	-0.2162426783713774	-0.224780101051813	0.8028225774909274	0.8028225774909606	-0.1260103372776567	-0.1481035177641127	0.1153595833745284	-0.02409882881402761	0.7415279244599077	0.3023527905187452	0.5640956770021085	-2.61596516735869	0.2109973868318153	-0.7420955776970246	0.3222563237266407	-2.074283633610606	-2.074283633610877	-0.1448056493242927	0.1266452521535454	-0.3719822438882817	0.05330721468357748	-0.1804817173481347	0.02983409864739143	-0.00876752389745699	-0.1975130713215166	0.0483355769186759	0.04244266083378594	0.1715947616148021	-16.38182200490458	-18.42021786070698	5.862674206909935	-8.325329084026325	-514.8092689945928	-58.34876990893293	-25.08859215098051	0.7433436881049473	0.7528937991099471	-0.613827175674476	-1.248136697927254	0.6897181616809487	-0.09339378656054893	1.48102247314994	-1.211503415100952	-1.211503415088989	-0.0158987916499259	0.2208676141103215	-0.5178612256486667	0.4714310865072056	5.997438994538624e-07	3.795899710829696e-07	-3.469918472260341e-06	-1.837540304890227e-07	8.402601317063472e-07	-1.94093626671221e-07	5.331624533460545e-07
1.52	-0.378050696517136	-0.02811107246540006	0.7640990456625533	1.108893076486543	-0.4309087323457617	-0.2236684466413112	-0.2214831870833622	0.7820223792465125	0.782022379246533	-0.1274565876782013	-0.1468262987583302	0.1116149869435433	-0.02354094238998175	0.7485071698716544	0.309781284487883	0.5575888928345157	-2.627175004833417	0.217988143762317	-0.7429546865595975	0.3370997619943708	-2.085465448542077	-2.085465448542269	-0.1444432458602589	0.1287892574395407	-0.3768542921965284	0.05827746478115201	-0.1738257980079251	0.02888684160932292	-0.008510336300602063	-0.1950576043543357	0.04874997709865767	0.04174605506861735	0.1662719701797475	-16.01475437254305	-18.20476856497806	5.854387854147174	-8.414262778361445	-510.5934012752276	-58.68582416591967	-26.03273955853117	0.6415070078532129	0.7317253446329027	-0.6883061511981569	-0.973575920285157	0.7246423214863857	-0.1029514210641112	1.498998924714491	-1.018493374140766	-1.01849337414077	0.1402475106819822	0.205617426531705	-0.4506890548039518	0.5453573462354727	5.825816588067604e-07	5.822473850634951e-07	-3.158079177616422e-06	-1.190890320839293e-07	8.303864887446903e-07	-8.835893723017661e-08	5.187672345369113e-07
1.53	-0.3705336200383892	-0.02497715180759927	0.7696394366824605	1.082574508800163	-0.4286943116181917	-0.2311007239941108	-0.2180388212813631	0.7611191166000784	0.761119116600088	-0.1288981026990512	-0.145528603030683	0.1078239183807266	-0.02293299578758387	0.7547939533455827	0.3169443730952886	0.5503716421815162	-2.636152488585661	0.2248692869343347	-0.7433752507953032	0.3517238085972596	-2.094890598239003	-2.094890598239176	-0.1438664329641398	0.1307574329717149	-0.3813011439620279	0.06330425906013064	-0.1676773232915484	0.02843313363223608	-0.008125081757556243	-0.1914883768730879	0.0473128021215062	0.04088907254503056	0.1612114227959015	-16.25364634053414	-17.80512341241907	5.807087268761903	-7.790176715937741	-506.4066244974561	-58.79843863856323	-26.97550386280522	0.6051856901819955	0.6998297944723535	-0.755932161241582	-0.8018672571262737	0.6660277752691958	0.0076520915036603	1.436669056861237	-0.8601463985803655	-0.8601463985775407	0.01545151594631082	0.1930412574533748	-0.4329277826827593	0.4803430798849486	5.37003886163964e-07	7.901957670523175e-07	-2.697501691178604e-06	-4.06378089827945e-08	7.868415752844798e-07	1.249369963021816e-08	4.837703688901543e-07
1.54	-0.3629570913902995	-0.02177335442858885	0.7751041556680597	1.056177759745374	-0.4264118439668595	-0.2385333547860004	-0.2144497027075778	0.7401304783304555	0.740130478330449	-0.1303340389235768	-0.1442111008195244	0.1039901323912033	-0.02227498072016505	0.7603976037402844	0.3237566287298083	0.5424544859728843	-2.642811278515194	0.23159752851474	-0.7430253743779098	0.366050316351555	-2.102540573180403	-2.102540573180558	-0.1433274865932425	0.1327505541396123	-0.3853977775379205	0.06829115778534474	-0.1615288485751584	0.02797942565515645	-0.007739827214590865	-0.1879191493918325	0.04587562714435681	0.0400320900214543	0.1561508754120654	-16.49504667514308	-17.40841462063894	5.764112337748672	-7.206306749640616	-502.2767266118197	-58.96470941954276	-27.91709694676718	0.5048803920079228	0.6615587500557197	-0.828287262324641	-0.5098371557430371	0.6940620031639091	0.05113670955569388	1.439491154995821	-0.663458423035642	-0.6634584230356563	0.1326742056376179	0.2106065536763365	-0.3806454168826257	0.5373782354825534	5.048082793200621e-07	1.086410816623075e-06	-2.264091414546317e-06	4.93628774517526e-08	7.606159195116972e-07	1.05100889936279e-07	4.656154409282573e-07
1.55	-0.3553279506928111	-0.01850308302470939	0.7804863522617507	1.029725620331303	-0.4240630116373024	-0.2459603736777168	-0.2107190009597303	0.7190742832964544	0.7190742832964415	-0.1317639830391046	-0.1428748763001133	0.1001173872959769	-0.0215672948211763	0.765302884468072	0.3302485698830924	0.5338789602700018	-2.647239331072618	0.2381336498602103	-0.7422624627542521	0.3800363198416589	-2.108389105726753	-2.108389105726837	-0.1426665715206957	0.1344929046101961	-0.3890615478972694	0.07324681664304244	-0.1549441310356243	0.02696415233725453	-0.007447244380092221	-0.1855886009366541	0.04621038018086698	0.03886858995668263	0.1508037452930831	-16.19529976028888	-16.96901979297781	5.709400143839065	-7.061600479568995	-498.4760433655381	-58.97980905120139	-28.85836272109597	0.4642191276078847	0.635691486213708	-0.8879159263232015	-0.3526722902964765	0.6280662143093638	0.106683203845349	1.370097939592825	-0.4992449983551466	-0.4992449983445458	0.03223738527913907	0.1554570685285336	-0.345733407698191	0.4746970226240898	4.88031254809668e-07	1.484324417973015e-06	-1.861982488342141e-06	1.526705542487087e-07	7.543450606396456e-07	1.882078918210427e-07	4.668653542119584e-07
1.56	-0.3476535837451563	-0.01516935627164731	0.7857796474580022	1.003240523794748	-0.4216498822914764	-0.2533762004901809	-0.2068500505782666	0.6979688640714016	0.6979688640713896	-0.1331874305584554	-0.1415213467210513	0.09621070638470967	-0.02081004487126846	0.7694428537736088	0.3364476985663333	0.5246742064849887	-2.64940270301222	0.2444569317685105	-0.7407869585276142	0.3937000430747694	-2.112385411389922	-2.112385411389936	-0.1420281673595118	0.1362115660719456	-0.3921849407461053	0.07820396796916836	-0.1483594134960792	0.02594887901935701	-0.007154661545525604	-0.1832580524814802	0.0465451332173774	0.03770508989191491	0.1454566151741096	-15.89608673253468	-16.53367030153792	5.660061670410868	-6.957757010203247	-494.6949288964024	-59.04442890207547	-29.80093983428568	0.3518181075577264	0.6029962560470542	-0.9541328787507868	-0.0569010321787273	0.6514941157298921	0.193655230151727	1.375035103597136	-0.2930130463995793	-0.2930130463995774	0.1281720233650624	0.2058687519094592	-0.2725699147800271	0.5376767291681825	4.586654421118319e-07	1.742858664520761e-06	-1.54220461562576e-06	2.343085812426164e-07	7.20129908195303e-07	2.523921411322101e-07	4.579005361243183e-07
1.57	-0.3399417089486898	-0.01177528389634713	0.7909777887079941	0.9767454710772643	-0.4191745306205423	-0.2607743475810558	-0.2028462353177224	0.6768330315269327	0.6768330315269224	-0.1346039603342027	-0.1401511443932011	0.09227549314370839	-0.02000312693162191	0.772801636401915	0.3422979170425428	0.5148565240486691	-2.64921176819653	0.2505708609236244	-0.7387346421113383	0.4069822832627238	-2.114466145664602	-2.11446614566474	-0.1412813732875765	0.1378179813129126	-0.3947828406024844	0.08316495126493566	-0.1419885053836817	0.02471336225425222	-0.006840825431126294	-0.1805317671519671	0.04592515914242581	0.03669272009881481	0.1401970676880995	-15.9157928445218	-16.11202480702495	5.617371342890348	-6.480260314842898	-491.0878370090043	-59.25919848909344	-30.73582549664011	0.308339088659068	0.5657697792218056	-1.010091611120797	0.1165103163852504	0.5848552205910107	0.2275704731662654	1.292709610711316	-0.1184455728497372	-0.1184455728683456	0.04765911992887745	0.1360945159411678	-0.2421095846381781	0.4729493425613935	4.135636441796932e-07	1.827168717565767e-06	-1.325340559769123e-06	2.888595459827135e-07	6.509843887855969e-07	2.929229497263824e-07	4.361673038225017e-07
